<svg version="1.1" id="Layer_1" xmlns="http://www.w3.org/2000/svg" xmlns:xlink="http://www.w3.org/1999/xlink" x="0px" y="0px"
	 viewBox="0 0 60 60" style="enable-background:new 0 0 60 60;" xml:space="preserve">
<style type="text/css">
	.st0{fill:#245D38;}
	.st1{fill:#1E5C37;}
	.st2{fill:#FFFFFF;}
	.st3{fill:#EF3E42;}
</style>
<g>
	<path class="st0" d="M42.8,15.4c-0.1,0-0.2-0.1-0.2-0.1c-0.2-0.7-0.6-1.1-0.8-1.2c-0.5-0.4-1.2-0.4-1.9-0.2l-0.6,0.2
		c-1.6,0.6-3,1.1-8,2c-2.1,0.4-4,0.6-5.7,0.8c-2.1,0.2-4,0.4-5.9,0.9c-2.2,0.6-3.7,2.1-4.2,4.5c-0.1,0.7-0.7,3.2-1,4.8l-0.3,1.3
		c-0.2,0.9,0.2,1.7,0.9,2.1c0.1,0,0.2,0.1,0.3,0.1c0.1,0.5,0.4,0.9,0.8,1.1c0.7,0.4,1.5,0.3,2-0.3c2.7-2.7,5-3,9-3.4l0.2,0
		c0.3,0,0.7-0.1,1.1-0.1c-2,3.1-4.3,6.9-5.8,10c-3.2,6.6-5.5,12.2-5.9,18.1c-0.1,1,0.3,1.9,1.1,2.3c0.1,0.1,0.2,0.1,0.2,0.1
		c0.2,0.5,0.5,0.9,0.9,1.1c0.3,0.2,0.7,0.3,1.1,0.3c0.3,0,0.6-0.1,0.9-0.2c3.5-2.1,7.3-3.5,10.5-4.5c0.4-0.1,0.7-0.4,0.8-0.7
		c0.1-0.4,0.1-0.8,0-1.1c-0.3-0.6-0.6-3,0.5-8c0.6-2.9,1.5-5.9,2.5-8.4c1.7-4.3,3.4-7.9,6.1-12.8c1.4-2.5,2.1-4.6,2.4-6.7
		c0-0.1,0-0.1,0-0.2C43.6,16.2,43.1,15.6,42.8,15.4z"/>
	<path class="st1" d="M51.7,47.1c0,0.7-0.6,1.3-1.4,1.3c-0.8,0-1.4-0.6-1.4-1.3c0-0.7,0.6-1.3,1.4-1.3
		C51.1,45.7,51.7,46.3,51.7,47.1 M49.3,47.1c0,0.6,0.4,1.1,1,1.1c0.6,0,1-0.5,1-1c0-0.6-0.4-1.1-1-1.1C49.8,46,49.3,46.5,49.3,47.1
		 M50.2,47.7h-0.3v-1.3c0.1,0,0.3,0,0.5,0c0.2,0,0.4,0,0.5,0.1c0.1,0.1,0.1,0.2,0.1,0.3c0,0.1-0.1,0.3-0.3,0.3v0
		c0.1,0,0.2,0.1,0.2,0.3c0,0.2,0.1,0.3,0.1,0.3h-0.3c0,0-0.1-0.2-0.1-0.3c0-0.1-0.1-0.2-0.3-0.2h-0.1V47.7z M50.2,47h0.1
		c0.2,0,0.3-0.1,0.3-0.2c0-0.1-0.1-0.2-0.3-0.2c-0.1,0-0.1,0-0.2,0V47z"/>
	<path class="st2" d="M40.3,15.1c-1.9,0.7-3.1,1.3-8.9,2.3c-4.8,0.9-8.2,0.9-11.5,1.7c-1.5,0.4-2.8,1.4-3.2,3.5
		c-0.2,0.9-1.1,5.5-1.3,6.2c-0.1,0.7,0.5,0.8,0.7,0.6c3.1-3,5.7-3.4,9.8-3.8c2.4-0.3,5.6-0.6,7.1-1.5c-2.1,2.5-6.6,9.3-9.1,14.6
		c-3.2,6.5-5.3,11.9-5.8,17.6c-0.1,1,0.7,1.3,1,1.2c3.5-2.1,7.3-3.5,10.8-4.6c-0.6-1.1-0.6-4.1,0.4-8.9c0.5-2.6,1.4-5.8,2.5-8.7
		c1.7-4.3,3.5-8,6.2-13c1.3-2.4,2-4.4,2.3-6.3C41.2,15,40.6,15,40.3,15.1"/>
	<path class="st3" d="M41.6,27.6c-5.7,0-10.4,4.6-10.4,10.4c0,5.7,4.6,10.4,10.4,10.4C47.4,48.3,52,43.7,52,38
		C52,32.2,47.4,27.6,41.6,27.6"/>
	<path class="st2" d="M41.6,32.6l-2.7,0.6c0,0,0.1,0.2,0,0.5c0,0.3-1.4,7.9-1.4,7.9c-0.3,0.2-1.5,0.6-1.3-0.5c0,0,1.2-6.9,1.3-7.1
		c0-0.2-0.1-0.4-0.1-0.4l-2.7,0.6c0,0,0.1,0.4,0,0.7c0,0.2-1.1,6.1-1.2,6.7c-0.2,1.8,0.9,2.5,2.6,2.2c0,0,1.1-0.3,1.6-0.8
		c0,0,0,0.4,0.2,0.4c0.1,0,2.1-0.5,2.1-0.5l0.5-3.1h0c0.3-1.5,1.1-6.4,1.2-6.7C41.8,32.8,41.6,32.6,41.6,32.6"/>
	<path class="st2" d="M48.5,31.8c-0.4-0.2-1-0.3-1.7-0.2c-0.4,0.1-1.3,0.6-1.3,0.6c0-0.1-0.2-0.3-0.3-0.3l-2.4,0.5
		c0,0,0.2,0.2,0.1,0.5c0,0.1-1.3,7.3-2.1,11.6c-0.1,0.4-0.1,0.6-0.1,0.7c-0.1,0.4-0.2,0.5-0.2,0.5l2.8-0.5c0,0,0.1-0.1,0.2-0.5
		c0-0.1,0.5-2.6,0.5-2.7c0,0,0,0,0,0l1-0.2c2.6-0.5,3.4-1.8,3.8-3.6c0.1-0.5,0.6-3.8,0.7-4.3C49.4,33,49.2,32.2,48.5,31.8
		 M46.6,34.5l-0.8,4.4c-0.1,0.7-0.4,1.1-1.3,1.3c-0.2,0-0.3,0.1-0.3,0.1l1.2-6.7c0,0,0.1,0,0.2,0C46.5,33.3,46.7,33.9,46.6,34.5"/>
</g>
</svg>
